<svg xmlns="http://www.w3.org/2000/svg" width="256" height="256"><path fill-opacity=".016" d="M0 128.004v128.004l128.25-.254 128.25-.254.254-127.75L257.008 0H0v128.004m.485.496c0 70.4.119 99.053.265 63.672.146-35.38.146-92.98 0-128C.604 29.153.485 58.1.485 128.5" fill="#1976D2" fill-rule="evenodd"/><path fill-opacity=".071" d="M103.5 1.974C63.94 9.91 30.769 35.364 12.612 71.717c-16.974 33.987-16.974 78.579 0 112.566 18.323 36.686 51.623 62.056 91.634 69.812 12.278 2.38 33.542 2.548 46.032.363 51.869-9.073 95.132-51.797 103.75-102.458.702-4.125 1.658-7.928 2.124-8.45 1.087-1.218 1.12-32.836.034-32.165-.448.277-1.395-2.948-2.103-7.166-8.523-50.718-51.867-93.592-103.805-102.677-12.132-2.122-35.103-1.91-46.778.432m9.676 11.1c-15.67 2.034-31.434 7.663-46.583 16.634-11.175 6.617-30.268 25.71-36.885 36.885-23.421 39.55-23.421 83.264 0 122.814 6.617 11.175 25.71 30.268 36.885 36.885 23.158 13.714 47.882 19.517 72.157 16.936 19.007-2.02 33.848-6.982 50.657-16.936 11.175-6.617 30.268-25.71 36.885-36.885 23.421-39.55 23.421-83.264 0-122.814-6.617-11.175-25.71-30.268-36.885-36.885-24.277-14.376-50.14-20.02-76.231-16.634M80.004 92.495C54.152 131.267 33 163.217 33 163.495c0 2.272 8.849-3.867 49.002-33.997l45.98-34.501 23.46 11.717c12.903 6.444 23.806 11.372 24.228 10.949.937-.937-46.261-95.663-47.665-95.663-.549 0-22.149 31.723-48.001 70.495m94.578 34.03C149.328 145.486 128.286 161 127.824 161c-.462 0-11.136-5.151-23.718-11.447-12.583-6.296-23.129-11.197-23.436-10.89-.622.622 46.479 95.337 47.411 95.337C128.902 234 222 94.235 222 93.001c0-.55-.338-.99-.75-.976-.412.013-21.413 15.538-46.668 34.5M.407 128c0 9.075.152 12.787.337 8.25.185-4.537.185-11.963 0-16.5-.185-4.537-.337-.825-.337 8.25" fill="#1976D2" fill-rule="evenodd"/><path fill-opacity=".305" d="M108 1.404c-34.077 6.059-62.348 23.17-82.798 50.115C18.3 60.613 7.852 81.655 5.011 92.184c-6.647 24.634-6.642 47.693.017 71.816 1.138 4.125 4.679 12.9 7.868 19.5 12.958 26.816 32.788 46.646 59.604 59.604 36.409 17.593 76.141 17.352 112.314-.682 19.438-9.691 33.44-21.356 46.221-38.508 11.517-15.456 21.624-39.938 23.564-57.082.365-3.232 1.055-6.118 1.533-6.413.477-.296.868-6.387.868-13.537 0-7.152-.393-12.757-.873-12.46-.48.296-1.17-2.087-1.533-5.296-1.254-11.078-5.53-24.42-12.061-37.626-13.249-26.791-31.164-44.715-58.033-58.062C165.708 4.104 152.787.936 131.5.442c-10.514-.244-18.572.086-23.5.962m.235 12.03c-24.498 4.654-45.25 15.49-62.281 32.52-23.563 23.564-35.102 53.524-33.675 87.441 2.168 51.559 36.469 93.587 87.647 107.392 8.67 2.339 11.321 2.582 28.074 2.582s19.404-.243 28.074-2.582c42.899-11.572 73.141-41.814 84.713-84.713 2.339-8.67 2.582-11.321 2.582-28.074s-.243-19.404-2.582-28.074c-11.576-42.917-42.203-73.515-84.713-84.635-11.974-3.132-36.179-4.072-47.839-1.857m-27.57 78.565C54.999 130.498 34 162.496 34 163.106c0 .609.641.862 1.425.561.784-.301 21.976-15.961 47.093-34.801l45.667-34.254 23.364 11.67c12.85 6.418 23.621 11.253 23.935 10.744.675-1.092-46.102-95.026-47.321-95.026-.459 0-21.833 31.499-47.498 69.999M.392 128c0 7.425.157 10.463.35 6.75.192-3.713.192-9.787 0-13.5-.193-3.713-.35-.675-.35 6.75" fill="#1976D2" fill-rule="evenodd"/><path fill-opacity=".29" d="M113.845 1.139C61.031 7.194 18.432 44.137 4.58 95.897c-14.765 55.172 9.844 113.702 60.095 142.93 21.536 12.527 50.237 18.75 74.793 16.219 45.587-4.7 83.039-30.449 103.006-70.819C249.182 170.666 255 149.633 255 138.949c0-2.107.45-4.109 1-4.449.55-.34 1-3.768 1-7.618 0-4.412-.37-6.772-1-6.382-.602.372-1-.953-1-3.331 0-2.171-.713-7.71-1.585-12.309-10.67-56.282-55.54-97.641-112.626-103.81-10.966-1.186-15.968-1.169-26.944.089M115 12.023c-16.496 1.942-34.085 8.105-48.645 17.045-12.116 7.439-29.848 25.171-37.287 37.287-23.455 38.2-23.455 85.09 0 123.29 7.439 12.116 25.171 29.848 37.287 37.287 21.816 13.395 48.314 19.68 72.154 17.113 19.234-2.071 35.507-7.516 51.136-17.113 12.116-7.439 29.848-25.171 37.287-37.287 23.435-38.168 23.435-85.419 0-123.2-10.174-16.402-29.554-34.149-46.848-42.899-7.167-3.626-21.191-8.3-29.815-9.935-10.423-1.978-25.999-2.679-35.269-1.588M80.335 93.001c-25.666 38.501-46.408 70.259-46.093 70.575.316.315 21.586-15.19 47.267-34.455l46.694-35.028 23.007 11.512c12.654 6.331 23.281 11.237 23.617 10.901.835-.835-45.572-93.506-46.825-93.506-.55 0-22 31.501-47.667 70.001M.336 128c0 4.125.177 5.813.392 3.75.216-2.062.216-5.437 0-7.5-.215-2.062-.392-.375-.392 3.75" fill="#1976D2" fill-rule="evenodd"/></svg>